<svg width="529.13" height="215.43" version="1.1" viewBox="0 0 140 57" xmlns="http://www.w3.org/2000/svg">
  <g transform="translate(-42.321 -29.801)">
    <path d="m71.81 51.122s4.2668-11.451-0.38965-14.309c-3.3438-2.0522-14.514-1.9024-22.273 16.633-9.9558 23.781-3.5654 28.854 1.4681 30.956 5.0334 2.102 14.088-1.3227 21.392-8.79 13.457-13.758 16.149-19.109 16.149-19.109s14.471-16.816 13.003-22.548c-1.4681-5.7326-10.316-0.68854-13.632 3.6307-8.2369 10.727-22.442 40.13-22.021 48.154 0 0 24.119-26.561 31.459-26.943 7.3405-0.38218-3.1665 8.1967-5.8724 16.051-2.1702 6.2996-0.74101 7.6617 2.307 8.9811 2.8805 1.2469 8.5988-3.8217 8.5988-3.8217s13.842-26.752 23.489-14.905c0 0-9.0077-7.637-16.778 7.0702-7.7704 14.707 3.9848 11.465 7.1307 8.5989 1.8102-1.6493 14.052-19.873 14.052-19.873l-6.7113 15.86s-1.5195 7.19 2.7264 7.2613c7.9874 0.13414 15.31-20.446 27.055-21.593 4.8369-0.47217 4.8237 0.38218 4.8237 0.38218-5.6626-0.95544-9.6912-3.3087-17.617 13.949-5.3914 11.74 13.423 7.6435 15.73-4.0128 1.7185-8.6831 9.6474-32.676 18.456-36.498 4.2044-1.8241 7.7575 2.6072 5.8724 7.2613-6.5016 16.051-25.135 18.657-24.538 31.529 0.33146 7.1512 4.5341 8.6673 8.8085 10.128" fill="none" stroke="#ff00ff" stroke-linejoin="bevel" stroke-width="3.1556"/>
  </g>
</svg>
