<svg xmlns="http://www.w3.org/2000/svg" width="529.13" height="215.43" viewBox="0 0 140 57">
  <path fill="none" stroke="#f0f" stroke-linejoin="bevel" stroke-width="3.156" pathLength="1" d="M29.489 21.321s4.267-11.451-.39-14.309C25.756 4.96 14.585 5.11 6.826 23.645c-9.955 23.781-3.565 28.854 1.468 30.956 5.034 2.102 14.088-1.323 21.392-8.79 13.457-13.758 16.15-19.109 16.15-19.109S60.305 9.886 58.837 4.154c-1.468-5.733-10.316-.689-13.632 3.63-8.236 10.728-22.442 40.13-22.02 48.155 0 0 24.118-26.561 31.458-26.943 7.341-.382-3.166 8.196-5.872 16.05-2.17 6.3-.741 7.662 2.307 8.982 2.88 1.247 8.599-3.822 8.599-3.822S73.52 23.454 83.167 35.301c0 0-9.008-7.637-16.778 7.07s3.985 11.465 7.13 8.6c1.81-1.65 14.053-19.874 14.053-19.874l-6.712 15.86s-1.52 7.19 2.727 7.261c7.987.135 15.31-20.446 27.055-21.593 4.837-.472 4.823.383 4.823.383-5.662-.956-9.69-3.309-17.617 13.949-5.391 11.74 13.423 7.643 15.73-4.013 1.719-8.683 9.648-32.676 18.456-36.498 4.205-1.824 7.758 2.607 5.873 7.261-6.502 16.051-25.135 18.657-24.538 31.53.331 7.15 4.534 8.666 8.808 10.127"/>
</svg>
